<svg width="145" height="84.50636942675159" viewBox="0 0 628 366" fill="none" xmlns="http://www.w3.org/2000/svg">
<g clip-path="url(#clip0_19_10937)">
<path d="M609.79 33.7976C623.83 51.6526 629.931 75.1435 626.722 97.1292C623.379 118.982 610.994 139.329 587.328 155.718C563.795 172.241 531.305 183.567 504.563 174.106C477.822 164.646 456.83 134.399 453.487 104.552C450.011 74.7043 464.318 45.1236 484.24 25.936C504.296 6.7485 529.968 -1.91254 552.831 0.352657C575.695 2.7511 595.618 16.0758 609.79 33.7976Z" fill="#53DDFF"></path>
<path d="M557.923 120.684V73.6503C557.923 70.1663 559.068 67.3293 561.358 65.1394C563.747 62.8499 566.832 61.7051 570.615 61.7051C574.398 61.7051 577.434 62.8499 579.723 65.1394C582.112 67.3293 583.307 70.1663 583.307 73.6503V120.684C583.307 124.168 582.112 127.055 579.723 129.345C577.434 131.535 574.398 132.63 570.615 132.63C566.832 132.63 563.747 131.535 561.358 129.345C559.068 127.055 557.923 124.168 557.923 120.684ZM561.059 49.76C558.471 47.2714 557.177 44.2851 557.177 40.8011C557.177 37.3171 558.471 34.3308 561.059 31.8422C563.747 29.3537 566.932 28.1094 570.615 28.1094C574.298 28.1094 577.434 29.3537 580.022 31.8422C582.71 34.3308 584.053 37.3171 584.053 40.8011C584.053 44.2851 582.71 47.2714 580.022 49.76C577.434 52.2485 574.298 53.4928 570.615 53.4928C566.932 53.4928 563.747 52.2485 561.059 49.76Z" fill="white"></path>
<path fill-rule="evenodd" clip-rule="evenodd" d="M517.22 62.6289C527.539 62.6289 535.71 64.4421 540.712 68.9541C545.81 73.5522 547.876 81.1238 547.876 90.5557V122.111C547.876 124.833 546.841 127.233 544.942 129.165L544.943 129.166C544.938 129.171 544.931 129.177 544.926 129.183C544.908 129.201 544.89 129.221 544.872 129.24L544.87 129.238C542.989 131.2 540.591 132.244 537.862 132.244H536.557C533.827 132.244 531.372 131.301 529.383 129.429L529.346 129.394L529.31 129.359C528.617 128.666 528.037 127.91 527.571 127.101C522.635 131.316 516.523 133.429 509.391 133.429C503.21 133.429 497.871 131.397 493.629 127.249L493.602 127.223L493.576 127.196C489.399 122.925 487.396 117.451 487.396 111.078C487.396 103.203 490.456 96.8153 496.613 92.3375L496.623 92.3309L496.633 92.3235C502.772 87.9257 511.68 85.9992 522.796 85.9992H525.302C525.116 83.74 524.474 82.7711 523.983 82.3691L523.949 82.3411L523.914 82.3111C523.144 81.646 521.133 80.8775 516.865 80.8774C512.652 80.8774 507.33 81.6442 500.837 83.2675L500.836 83.2656C498.451 83.9029 496.111 83.4707 494.111 82.0042L494.054 81.962L493.999 81.9181C492.023 80.3377 490.954 78.1483 490.954 75.6088C490.954 73.0473 491.753 70.6959 493.325 68.6752C494.879 66.5987 496.974 65.2234 499.521 64.727L500.682 64.4743C506.471 63.2513 511.987 62.6289 517.22 62.6289ZM519.427 117.284C519.196 117.365 518.962 117.441 518.724 117.511C519.126 117.392 519.519 117.256 519.901 117.106C519.745 117.167 519.587 117.227 519.427 117.284ZM522.796 102.587C517.377 102.587 513.881 103.439 511.839 104.696C510.066 105.787 509.202 107.277 509.202 109.655C509.202 111.493 509.695 112.685 510.441 113.532C511.266 114.386 512.255 114.826 513.661 114.826C517.414 114.826 520.141 113.705 522.179 111.673C524.16 109.625 525.324 106.726 525.354 102.587H522.796ZM505.865 110.582C505.875 110.718 505.888 110.852 505.902 110.985C505.887 110.844 505.874 110.702 505.864 110.559L505.865 110.582ZM520.827 89.3906C519.53 89.4195 518.276 89.4769 517.064 89.5637C518.267 89.4776 519.511 89.4206 520.797 89.3915L520.827 89.3906ZM525.9 79.5832C525.974 79.6413 526.047 79.7004 526.117 79.761L525.95 79.6216C525.934 79.6084 525.917 79.5962 525.9 79.5832ZM495.711 78.9412C495.834 79.0602 495.965 79.1752 496.104 79.2865L495.889 79.105C495.819 79.0434 495.752 78.9807 495.687 78.9169L495.711 78.9412Z" fill="white"></path>
<path d="M93.9336 24.6582C99.6794 24.6583 104.908 26.0976 108.664 29.8535C112.371 33.5602 113.859 38.6037 113.859 44.1689C113.859 49.8435 112.388 54.9697 108.758 58.8017L108.712 58.8515L108.664 58.8994C104.908 62.6552 99.6793 64.0946 93.9336 64.0947H48.1445V83.5322H84.373C90.0217 83.5323 95.1519 84.9931 98.8828 88.7158C102.719 92.4014 104.299 97.4442 104.299 103.043C104.299 108.771 102.724 113.941 98.7988 117.66L98.7979 117.659C95.0741 121.321 89.9796 122.762 84.373 122.762H48.1445V157.978C48.1445 165.261 46.4036 171.651 42.0391 176.208C37.6361 180.804 31.3948 182.673 24.2803 182.673C17.2722 182.673 11.1326 180.738 6.51367 176.304L6.43945 176.233L6.36914 176.16C1.897 171.502 0 165.192 0 157.978V49.3515C1.09971e-05 42.1521 1.89169 35.8534 6.44043 31.3047C11.1104 26.6349 17.5326 24.6582 24.9023 24.6582H93.9336Z" fill="white"></path>
<path d="M398.334 22.792C404.927 22.792 410.773 24.5207 414.929 28.8174C419.197 33.0862 420.955 38.9669 420.955 45.6201V160.466C420.955 166.615 419.318 172.096 415.582 176.393L415.546 176.435L415.509 176.475C411.657 180.712 406.499 182.673 400.614 182.673C395.399 182.673 390.666 181.763 386.848 179.473L386.72 179.395L386.597 179.311C383.428 177.144 380.25 173.984 377.045 170.051L377.029 170.032L329.572 110.598C328.392 109.12 326.01 109.954 326.01 111.846V159.637C326.01 166.346 324.295 172.28 320.065 176.563C320.039 176.591 320.012 176.62 319.985 176.647L319.984 176.646C315.829 180.943 309.983 182.673 303.39 182.673C296.736 182.673 290.855 180.916 286.586 176.647C282.297 172.358 280.562 166.389 280.562 159.637V46.6562C280.562 39.8263 282.266 33.798 286.437 29.3886L286.824 28.9765C290.869 24.7921 296.128 22.792 302.146 22.792C307.109 22.792 311.669 23.7093 315.284 26.1191C318.404 28.1988 321.548 31.4281 324.732 35.4804L372.152 94.7168C373.334 96.1923 375.714 95.3577 375.714 93.4677V45.6201C375.714 39.0259 377.368 33.1767 381.45 28.9004L381.49 28.8584L381.531 28.8174C385.8 24.5487 391.681 22.792 398.334 22.792Z" fill="white"></path>
<path d="M178.279 55.2408C178.279 69.4071 166.795 80.8912 152.628 80.8912C138.462 80.8912 126.978 69.4071 126.978 55.2408C126.978 41.0745 138.462 29.5904 152.628 29.5904C166.795 29.5904 178.279 41.0745 178.279 55.2408Z" fill="white"></path>
<path d="M227.849 103.709C234.767 95.8192 246.77 95.0309 254.66 101.949C262.551 108.866 263.339 120.87 256.421 128.76C215.519 175.412 160.447 171.479 136.06 152.897L135.49 152.456L135.109 152.147C127.202 145.593 125.921 133.891 132.31 125.774C138.698 117.657 150.373 116.151 158.602 122.296L158.991 122.594L159.354 122.867C167.358 128.613 199.648 135.874 227.849 103.709Z" fill="white"></path>
<path d="M230.78 25.4833C237.424 20.8371 246.599 22.3132 251.44 28.8753C256.358 35.542 254.941 44.9336 248.274 49.8515L244.591 52.5673L254.993 58.0658C262.317 61.937 265.116 71.0128 261.245 78.3368C257.374 85.6608 248.298 88.4599 240.974 84.5888L209.462 67.933C204.9 65.5218 201.898 60.9358 201.513 55.7908C201.128 50.6457 203.415 45.6636 207.567 42.6006L230.465 25.7089L230.78 25.4833Z" fill="white"></path>
<path d="M178.279 55.2408C178.279 69.4071 166.795 80.8912 152.628 80.8912C138.462 80.8912 126.978 69.4071 126.978 55.2408C126.978 41.0745 138.462 29.5904 152.628 29.5904C166.795 29.5904 178.279 41.0745 178.279 55.2408Z" fill="white"></path>
<path d="M227.849 103.709C234.767 95.8192 246.77 95.0309 254.66 101.949C262.551 108.866 263.339 120.87 256.421 128.76C215.519 175.412 160.447 171.479 136.06 152.897L135.49 152.456L135.109 152.147C127.202 145.593 125.921 133.891 132.31 125.774C138.698 117.657 150.373 116.151 158.602 122.296L158.991 122.594L159.354 122.867C167.358 128.613 199.648 135.874 227.849 103.709Z" fill="white"></path>
<path d="M230.78 25.4833C237.424 20.8371 246.599 22.3132 251.44 28.8753C256.358 35.542 254.941 44.9336 248.274 49.8515L244.591 52.5673L254.993 58.0658C262.317 61.937 265.116 71.0128 261.245 78.3368C257.374 85.6608 248.298 88.4599 240.974 84.5888L209.462 67.933C204.9 65.5218 201.898 60.9358 201.513 55.7908C201.128 50.6457 203.415 45.6636 207.567 42.6006L230.465 25.7089L230.78 25.4833Z" fill="white"></path>
<path d="M231.098 206.673C253.865 206.673 272.886 214.249 288.16 229.401C303.434 244.554 311.071 263.423 311.071 286.009C311.071 308.594 303.434 327.464 288.16 342.616C272.886 357.769 253.865 365.346 231.098 365.346C208.33 365.346 189.309 357.769 174.035 342.616C158.761 327.464 151.124 308.595 151.124 286.009C151.124 263.423 158.761 244.554 174.035 229.401C189.309 214.249 208.33 206.673 231.098 206.673ZM231.098 248.151C221.543 248.151 213.56 251.672 207.149 258.711C200.739 265.75 197.534 274.516 197.534 285.009C197.534 295.501 200.739 304.268 207.149 311.308C213.56 318.347 221.543 321.866 231.098 321.866C240.653 321.866 248.636 318.347 255.046 311.308C261.456 304.268 264.661 295.501 264.661 285.009C264.661 274.516 261.456 265.75 255.046 258.711C248.636 251.672 240.653 248.151 231.098 248.151Z" fill="white"></path>
<path d="M81.25 203.813C100.233 203.813 117.462 210.022 132.514 222.001L133.229 222.576L133.679 222.941L134.097 223.343C138.92 227.966 140.761 233.91 140.761 239.523C140.761 242.454 140.24 245.499 138.983 248.467C137.807 251.243 136.119 253.698 134.028 255.776C131.844 257.947 129.323 259.531 126.675 260.617L126.676 260.618C126.667 260.622 126.657 260.625 126.647 260.629C126.579 260.657 126.51 260.687 126.441 260.715L126.44 260.713C123.604 261.863 120.665 262.384 117.763 262.385C111.799 262.385 106.69 260.074 102.712 256.722C99.7496 254.429 96.4991 252.67 92.9014 251.427L92.8564 251.411C89.3663 250.191 85.5288 249.535 81.25 249.535C71.3477 249.535 63.2639 252.862 56.2197 259.864C49.322 266.721 45.9953 274.687 45.9951 284.579C45.9951 294.544 49.334 302.533 56.2197 309.378C63.1786 316.295 71.2499 319.624 81.25 319.624C89.783 319.624 96.9261 317.096 103.255 311.992L103.672 311.656L104.113 311.352C108.117 308.597 112.594 307.4 116.951 307.28L117.147 307.275H117.343C120.45 307.275 123.558 307.901 126.502 309.23C129.005 310.312 131.323 311.828 133.342 313.79C135.585 315.916 137.272 318.42 138.422 321.137C139.726 324.032 140.34 327.084 140.34 330.135C140.34 336.594 137.633 342.096 133.588 346.239L132.965 346.878L132.267 347.431C117.342 359.274 100.18 365.345 81.25 365.345C58.9461 365.345 39.5196 357.37 23.7715 341.716C8.02342 326.061 0 306.75 0 284.579C0.000152609 262.451 8.03246 243.171 23.7715 227.526C39.5538 211.838 58.9715 203.813 81.25 203.813Z" fill="white"></path>
<path fill-rule="evenodd" clip-rule="evenodd" d="M394.427 206.917C420.648 206.917 441.64 213.477 456.667 227.292C471.898 241.165 479.238 260.611 479.238 284.887C479.238 297.01 477.361 308.014 473.5 317.815L473.495 317.828L473.49 317.84C469.637 327.472 464.049 335.76 456.723 342.638L456.703 342.657L456.683 342.676C449.324 349.434 440.323 354.532 429.798 358.041L429.778 358.048L429.758 358.053C419.348 361.426 407.547 363.065 394.427 363.065H353.795C346.478 363.065 340.163 361.129 335.406 356.697L335.333 356.626L335.262 356.552C330.79 351.894 328.894 345.585 328.894 338.372V231.61C328.894 224.411 330.785 218.112 335.334 213.563C340.004 208.894 346.425 206.917 353.795 206.917H394.427ZM377.038 322.177H391.938C398.878 322.176 404.59 321.323 409.185 319.752L409.203 319.745L409.223 319.739C413.996 318.148 417.712 315.892 420.535 313.069L420.57 313.034L420.605 313.001C423.534 310.184 425.747 306.578 427.181 302.039L427.198 301.982L427.218 301.926C428.792 297.323 429.644 291.676 429.644 284.887C429.644 271.234 426.291 262.237 420.606 256.775L420.589 256.758L420.57 256.74C414.81 251.092 405.597 247.805 391.938 247.804H377.038V322.177Z" fill="white"></path>
<path d="M593.258 206.917C600.437 207.403 604.231 209.463 607.987 213.219C611.411 217.15 613.184 222.862 613.184 228.427C613.184 234.102 611.617 239.326 607.987 243.158C604.231 246.914 599.003 248.353 593.258 248.353H544.566V263.132H577.697C583.352 263.132 588.488 264.596 592.22 268.328C596.074 272.04 597.623 278.17 597.623 283.85C597.623 289.578 596.048 295.749 592.123 299.468L592.122 299.467C588.398 303.128 583.304 304.569 577.697 304.569H544.566V321.628H593.258C599.075 321.628 604.338 323.176 608.082 327.128C611.719 330.825 613.184 335.829 613.184 341.346C613.184 347.001 611.814 352.965 608.082 356.697C604.326 360.453 599.004 363.065 593.258 363.065H522.982C515.666 363.065 509.271 361.187 504.594 356.697L504.52 356.626L504.449 356.552C499.977 351.894 498.081 345.585 498.081 338.372V231.61C498.081 224.411 499.972 218.112 504.521 213.563C509.19 208.893 515.613 206.917 522.982 206.917H593.258Z" fill="white"></path>
<path fill-rule="evenodd" clip-rule="evenodd" d="M394.427 206.917C420.648 206.917 441.64 213.477 456.667 227.292C471.898 241.165 479.238 260.611 479.238 284.887C479.238 297.01 477.361 308.014 473.5 317.815L473.495 317.828L473.49 317.84C469.637 327.472 464.049 335.76 456.723 342.638L456.703 342.657L456.683 342.676C449.324 349.434 440.323 354.532 429.798 358.041L429.778 358.048L429.758 358.053C419.348 361.426 407.547 363.065 394.427 363.065H353.795C346.478 363.065 340.163 361.129 335.406 356.697L335.333 356.626L335.262 356.552C330.79 351.894 328.894 345.585 328.894 338.372V231.61C328.894 224.411 330.785 218.112 335.334 213.563C340.004 208.894 346.425 206.917 353.795 206.917H394.427ZM378.139 248.701V321.344H396.847C401.372 321.344 409.336 319.601 412.927 318.033L412.935 318.03L412.941 318.027C416.571 316.395 419.419 314.359 422.085 311.573L422.093 311.565L422.099 311.556C424.626 308.356 426.682 304.785 428.011 300.304L428.013 300.299L428.014 300.292C429.345 295.733 429.993 290.614 429.993 284.974C429.993 273.68 427.461 265.614 422.208 259.16C417.025 252.733 405.891 248.701 396.847 248.701H378.139Z" fill="white"></path>
</g>
<defs>
<clipPath id="clip0_19_10937">
<rect width="627.559" height="365.346" fill="white"></rect>
</clipPath>
</defs>
</svg>