<svg width="145" height="24.516908212560388" viewBox="0 0 1242 210" fill="none" xmlns="http://www.w3.org/2000/svg">
<g clip-path="url(#clip0_19_10930)">
<path d="M667.604 50.8501C690.371 50.8501 709.392 58.4261 724.666 73.5786C739.94 88.7311 747.577 107.6 747.577 130.186C747.577 152.772 739.94 171.641 724.666 186.793C709.392 201.946 690.371 209.523 667.604 209.523C644.836 209.523 625.815 201.946 610.541 186.793C595.267 171.641 587.63 152.772 587.63 130.186C587.63 107.6 595.267 88.7311 610.541 73.5786C625.815 58.4261 644.836 50.8501 667.604 50.8501ZM667.604 92.3286C658.049 92.3286 650.066 95.8488 643.655 102.888C637.245 109.928 634.04 118.693 634.04 129.186C634.04 139.679 637.245 148.445 643.655 155.485C650.066 162.524 658.049 166.043 667.604 166.043C677.158 166.043 685.141 162.524 691.552 155.485C697.962 148.445 701.167 139.679 701.167 129.186C701.167 118.694 697.962 109.927 691.552 102.888C685.141 95.8488 677.158 92.3286 667.604 92.3286Z" fill="white"></path>
<path d="M517.756 47.9905C536.738 47.9906 553.968 54.1995 569.02 66.178L569.734 66.7532L570.185 67.1184L570.603 67.5198C575.426 72.1431 577.267 78.0875 577.267 83.7004C577.267 86.6316 576.746 89.6766 575.489 92.6438C574.313 95.4204 572.625 97.8749 570.534 99.9534C568.35 102.124 565.829 103.708 563.181 104.794L563.182 104.795C563.172 104.799 563.162 104.802 563.153 104.806C563.084 104.834 563.016 104.864 562.947 104.892L562.946 104.89C560.109 106.04 557.171 106.562 554.269 106.562C548.305 106.562 543.196 104.251 539.218 100.9C536.255 98.6067 533.005 96.8477 529.407 95.6038L529.362 95.5881C525.872 94.3681 522.035 93.7122 517.756 93.7122C507.854 93.7122 499.77 97.0393 492.726 104.041C485.828 110.898 482.501 118.864 482.501 128.756C482.501 138.721 485.84 146.71 492.726 153.555C499.684 160.472 507.756 163.801 517.756 163.801C526.289 163.801 533.432 161.273 539.761 156.169L540.178 155.833L540.619 155.53C544.623 152.774 549.1 151.578 553.457 151.457L553.653 151.452H553.849C556.956 151.452 560.064 152.078 563.008 153.407C565.511 154.489 567.829 156.005 569.848 157.967C572.091 160.093 573.778 162.598 574.928 165.315C576.232 168.21 576.846 171.261 576.846 174.313C576.846 180.771 574.139 186.273 570.094 190.416L569.471 191.055L568.772 191.609C553.847 203.451 536.686 209.523 517.756 209.523C495.452 209.523 476.025 201.547 460.277 185.893C444.529 170.238 436.506 150.927 436.506 128.756C436.506 106.628 444.538 87.3487 460.277 71.7034C476.06 56.0152 495.477 47.9905 517.756 47.9905Z" fill="white"></path>
<path d="M93.9336 51.094C99.6794 51.0941 104.908 52.5334 108.664 56.2893C112.371 59.996 113.859 65.0395 113.859 70.6047C113.859 76.2793 112.388 81.4055 108.758 85.2375L108.712 85.2874L108.664 85.3352C104.908 89.091 99.6793 90.5304 93.9336 90.5305H48.1445V109.968H84.373C90.0217 109.968 95.1519 111.429 98.8828 115.152C102.719 118.837 104.299 123.88 104.299 129.479C104.299 135.207 102.724 140.377 98.7988 144.096L98.7979 144.095C95.0741 147.757 89.9796 149.197 84.373 149.198H48.1445V184.414C48.1445 191.697 46.4036 198.087 42.0391 202.644C37.6361 207.24 31.3948 209.109 24.2803 209.109C17.2722 209.109 11.1326 207.174 6.51367 202.74L6.43945 202.669L6.36914 202.596C1.897 197.937 0 191.628 0 184.414V75.7874C1.09971e-05 68.5879 1.89169 62.2892 6.44043 57.7405C11.1104 53.0707 17.5326 51.094 24.9023 51.094H93.9336Z" fill="white"></path>
<path d="M398.334 49.2278C404.927 49.2279 410.773 50.9565 414.929 55.2532C419.197 59.522 420.955 65.4028 420.955 72.0559V186.902C420.955 193.051 419.318 198.532 415.582 202.828L415.546 202.87L415.509 202.91C411.657 207.147 406.499 209.109 400.614 209.109C395.399 209.109 390.666 208.199 386.848 205.908L386.72 205.831L386.597 205.747C383.428 203.579 380.25 200.42 377.045 196.487L377.029 196.468L329.572 137.033C328.392 135.556 326.01 136.39 326.01 138.281V186.073C326.01 192.781 324.295 198.716 320.065 202.999C320.039 203.027 320.012 203.056 319.985 203.083L319.984 203.082C315.829 207.379 309.983 209.109 303.39 209.109C296.736 209.109 290.855 207.352 286.586 203.083C282.297 198.794 280.562 192.825 280.562 186.073V73.092C280.562 66.2621 282.266 60.2338 286.437 55.8245L286.824 55.4124C290.869 51.2279 296.128 49.2278 302.146 49.2278C307.109 49.2278 311.669 50.1452 315.284 52.5549C318.404 54.6346 321.548 57.8639 324.732 61.9163L372.152 121.153C373.334 122.628 375.714 121.793 375.714 119.904V72.0559C375.714 65.4618 377.368 59.6125 381.45 55.3362L381.49 55.2942L381.531 55.2532C385.8 50.9845 391.681 49.2278 398.334 49.2278Z" fill="white"></path>
<path fill-rule="evenodd" clip-rule="evenodd" d="M830.933 51.094C857.154 51.0941 878.146 57.6547 893.173 71.469C908.404 85.3427 915.744 104.788 915.744 129.065C915.744 141.188 913.867 152.191 910.006 161.992L910.001 162.005L909.996 162.017C906.143 171.649 900.555 179.938 893.229 186.816L893.209 186.834L893.188 186.853C885.83 193.611 876.828 198.71 866.304 202.218L866.284 202.225L866.264 202.231C855.854 205.603 844.053 207.242 830.933 207.242H790.301C782.984 207.242 776.669 205.306 771.912 200.874L771.839 200.803L771.768 200.73C767.296 196.071 765.399 189.762 765.399 182.549V75.7874C765.399 68.5879 767.291 62.2892 771.84 57.7405C776.51 53.0709 782.931 51.094 790.301 51.094H830.933ZM813.544 166.354H828.444C835.383 166.354 841.096 165.501 845.69 163.929L845.709 163.922L845.729 163.916C850.501 162.325 854.218 160.07 857.041 157.246L857.076 157.211L857.111 157.178C860.04 154.362 862.253 150.756 863.687 146.216L863.704 146.159L863.724 146.103C865.298 141.5 866.149 135.854 866.149 129.065C866.149 115.411 862.797 106.414 857.112 100.952L857.095 100.935L857.076 100.917C851.315 95.2695 842.103 91.9818 828.444 91.9817H813.544V166.354Z" fill="white"></path>
<path d="M1029.76 51.094C1036.94 51.5807 1040.74 53.6407 1044.49 57.3964C1047.92 61.3276 1049.69 67.0395 1049.69 72.6047C1049.69 78.2792 1048.12 83.5032 1044.49 87.3352C1040.74 91.0908 1035.51 92.5304 1029.76 92.5305H981.072V107.309H1014.2C1019.86 107.309 1024.99 108.773 1028.73 112.505C1032.58 116.217 1034.13 122.347 1034.13 128.028C1034.13 133.755 1032.55 139.926 1028.63 143.645L1028.63 143.644C1024.9 147.305 1019.81 148.746 1014.2 148.746H981.072V165.805H1029.76C1035.58 165.805 1040.84 167.353 1044.59 171.305C1048.23 175.003 1049.69 180.006 1049.69 185.524C1049.69 191.179 1048.32 197.142 1044.59 200.874C1040.83 204.63 1035.51 207.242 1029.76 207.242H959.488C952.171 207.242 945.777 205.364 941.1 200.874L941.025 200.803L940.955 200.73C936.483 196.071 934.587 189.762 934.587 182.549V75.7874C934.587 68.5879 936.478 62.2892 941.026 57.7405C945.696 53.0707 952.119 51.094 959.488 51.094H1029.76Z" fill="white"></path>
<path d="M178.279 81.6766C178.279 95.8429 166.795 107.327 152.628 107.327C138.462 107.327 126.978 95.8429 126.978 81.6766C126.978 67.5103 138.462 56.0262 152.628 56.0262C166.795 56.0262 178.279 67.5103 178.279 81.6766Z" fill="white"></path>
<path d="M227.849 130.145C234.767 122.255 246.77 121.467 254.66 128.385C262.551 135.302 263.339 147.306 256.421 155.196C215.519 201.848 160.447 197.915 136.06 179.333L135.49 178.891L135.109 178.583C127.202 172.029 125.921 160.327 132.31 152.21C138.698 144.093 150.373 142.587 158.602 148.732L158.991 149.03L159.354 149.302C167.358 155.048 199.648 162.31 227.849 130.145Z" fill="white"></path>
<path d="M230.78 51.9191C237.424 47.273 246.599 48.749 251.44 55.3111C256.358 61.9778 254.941 71.3694 248.274 76.2873L244.591 79.0031L254.993 84.5016C262.317 88.3728 265.116 97.4486 261.245 104.773C257.374 112.097 248.298 114.896 240.974 111.025L209.462 94.3688C204.9 91.9577 201.898 87.3716 201.513 82.2266C201.128 77.0815 203.415 72.0994 207.567 69.0365L230.465 52.1447L230.78 51.9191Z" fill="white"></path>
<path fill-rule="evenodd" clip-rule="evenodd" d="M830.933 51.094C857.154 51.0941 878.146 57.6547 893.173 71.469C908.404 85.3427 915.744 104.788 915.744 129.065C915.744 141.188 913.867 152.191 910.006 161.992L910.001 162.005L909.996 162.017C906.143 171.649 900.555 179.938 893.229 186.816L893.209 186.834L893.188 186.853C885.83 193.611 876.828 198.71 866.304 202.218L866.284 202.225L866.264 202.231C855.854 205.603 844.053 207.242 830.933 207.242H790.301C782.984 207.242 776.669 205.306 771.912 200.874L771.839 200.803L771.768 200.73C767.296 196.071 765.399 189.762 765.399 182.549V75.7874C765.399 68.5879 767.291 62.2892 771.84 57.7405C776.51 53.0709 782.931 51.094 790.301 51.094H830.933ZM814.645 92.8779V165.521H833.353C837.878 165.521 845.842 163.779 849.433 162.21L849.44 162.207L849.447 162.204C853.077 160.572 855.925 158.536 858.591 155.75L858.599 155.742L858.604 155.733C861.131 152.534 863.188 148.962 864.517 144.481L864.519 144.476L864.52 144.47C865.851 139.91 866.499 134.791 866.499 129.151C866.499 117.858 863.967 109.791 858.714 103.337C853.531 96.9102 842.396 92.8779 833.353 92.8779H814.645Z" fill="white"></path>
<path d="M1223.46 33.7976C1237.49 51.6526 1243.6 75.1435 1240.39 97.1292C1237.04 118.982 1224.66 139.329 1200.99 155.718C1177.46 172.241 1144.97 183.567 1118.23 174.106C1091.49 164.646 1070.5 134.399 1067.15 104.552C1063.68 74.7043 1077.98 45.1236 1097.91 25.936C1117.96 6.7485 1143.63 -1.91254 1166.5 0.352657C1189.36 2.7511 1209.28 16.0758 1223.46 33.7976Z" fill="#53DDFF"></path>
<path d="M1171.59 120.684V73.6503C1171.59 70.1663 1172.73 67.3293 1175.02 65.1394C1177.41 62.8499 1180.5 61.7051 1184.28 61.7051C1188.06 61.7051 1191.1 62.8499 1193.39 65.1394C1195.78 67.3293 1196.97 70.1663 1196.97 73.6503V120.684C1196.97 124.168 1195.78 127.055 1193.39 129.345C1191.1 131.535 1188.06 132.63 1184.28 132.63C1180.5 132.63 1177.41 131.535 1175.02 129.345C1172.73 127.055 1171.59 124.168 1171.59 120.684ZM1174.72 49.76C1172.14 47.2714 1170.84 44.2851 1170.84 40.8011C1170.84 37.3171 1172.14 34.3308 1174.72 31.8422C1177.41 29.3537 1180.6 28.1094 1184.28 28.1094C1187.96 28.1094 1191.1 29.3537 1193.69 31.8422C1196.37 34.3308 1197.72 37.3171 1197.72 40.8011C1197.72 44.2851 1196.37 47.2714 1193.69 49.76C1191.1 52.2485 1187.96 53.4928 1184.28 53.4928C1180.6 53.4928 1177.41 52.2485 1174.72 49.76Z" fill="white"></path>
<path fill-rule="evenodd" clip-rule="evenodd" d="M1130.89 62.6289C1141.2 62.6289 1149.37 64.4421 1154.38 68.9541C1159.47 73.5522 1161.54 81.1238 1161.54 90.5557V122.111C1161.54 124.833 1160.51 127.233 1158.61 129.165L1158.61 129.166C1158.6 129.171 1158.6 129.177 1158.59 129.183C1158.57 129.201 1158.56 129.221 1158.54 129.24L1158.53 129.238C1156.65 131.2 1154.26 132.244 1151.53 132.244H1150.22C1147.49 132.244 1145.04 131.301 1143.05 129.429L1143.01 129.394L1142.98 129.359C1142.28 128.666 1141.7 127.91 1141.24 127.101C1136.3 131.316 1130.19 133.429 1123.06 133.429C1116.88 133.429 1111.54 131.397 1107.29 127.249L1107.27 127.223L1107.24 127.196C1103.06 122.925 1101.06 117.451 1101.06 111.078C1101.06 103.203 1104.12 96.8153 1110.28 92.3375L1110.29 92.3309L1110.3 92.3235C1116.44 87.9257 1125.34 85.9992 1136.46 85.9992H1138.97C1138.78 83.74 1138.14 82.7711 1137.65 82.3691L1137.61 82.3411L1137.58 82.3111C1136.81 81.646 1134.8 80.8775 1130.53 80.8774C1126.32 80.8774 1120.99 81.6442 1114.5 83.2675L1114.5 83.2656C1112.12 83.9029 1109.78 83.4707 1107.78 82.0042L1107.72 81.962L1107.66 81.9181C1105.69 80.3377 1104.62 78.1483 1104.62 75.6088C1104.62 73.0473 1105.42 70.6959 1106.99 68.6752C1108.54 66.5987 1110.64 65.2234 1113.19 64.727L1114.35 64.4743C1120.14 63.2513 1125.65 62.6289 1130.89 62.6289ZM1133.09 117.284C1132.86 117.365 1132.63 117.441 1132.39 117.511C1132.79 117.392 1133.18 117.256 1133.57 117.106C1133.41 117.167 1133.25 117.227 1133.09 117.284ZM1136.46 102.587C1131.04 102.587 1127.55 103.439 1125.5 104.696C1123.73 105.787 1122.87 107.277 1122.87 109.655C1122.87 111.493 1123.36 112.685 1124.11 113.532C1124.93 114.386 1125.92 114.826 1127.33 114.826C1131.08 114.826 1133.81 113.705 1135.84 111.673C1137.82 109.625 1138.99 106.726 1139.02 102.587H1136.46ZM1119.53 110.582C1119.54 110.718 1119.55 110.852 1119.57 110.985C1119.55 110.844 1119.54 110.702 1119.53 110.559L1119.53 110.582ZM1134.49 89.3906C1133.2 89.4195 1131.94 89.4769 1130.73 89.5637C1131.93 89.4776 1133.18 89.4206 1134.46 89.3915L1134.49 89.3906ZM1139.56 79.5832C1139.64 79.6413 1139.71 79.7004 1139.78 79.761L1139.62 79.6216C1139.6 79.6084 1139.58 79.5962 1139.56 79.5832ZM1109.38 78.9412C1109.5 79.0602 1109.63 79.1752 1109.77 79.2865L1109.55 79.105C1109.48 79.0434 1109.42 78.9807 1109.35 78.9169L1109.38 78.9412Z" fill="white"></path>
</g>
<defs>
<clipPath id="clip0_19_10930">
<rect width="1241.22" height="209.523" fill="white"></rect>
</clipPath>
</defs>
</svg>